<svg width="24" height="24" viewBox="0 0 24 24" fill="none" xmlns="http://www.w3.org/2000/svg">
<path d="M10.5858 12.5857L11.2929 11.8786L11.2929 11.8786L10.5858 12.5857ZM13.4142 12.5857L12.7071 11.8786L12.7071 11.8786L13.4142 12.5857ZM4 6H20V4H4V6ZM20 6V18H22V6H20ZM20 18H4V20H20V18ZM4 18V6H2V18H4ZM4 18H4H2C2 19.1046 2.89543 20 4 20V18ZM20 18V20C21.1046 20 22 19.1046 22 18H20ZM4 4C3.44799 4 2.94662 4.22495 2.58579 4.58579L4 6H4V4ZM2.58579 4.58579C2.22495 4.94662 2 5.44799 2 6H4L4 6L2.58579 4.58579ZM20 6L20 6L21.4142 4.58579C21.0534 4.22495 20.552 4 20 4V6ZM20 6L20 6H22C22 5.44799 21.775 4.94662 21.4142 4.58579L20 6ZM9.87868 13.2928C11.0503 14.4644 12.9497 14.4644 14.1213 13.2928L12.7071 11.8786C12.3166 12.2692 11.6834 12.2692 11.2929 11.8786L9.87868 13.2928ZM2.58579 6L9.87868 13.2928L11.2929 11.8786L4 4.58578L2.58579 6ZM14.1213 13.2928L21.4142 6L20 4.58578L12.7071 11.8786L14.1213 13.2928Z" fill="#656D72"/>
</svg>
